<svg viewBox="0 0 360 720" xmlns="http://www.w3.org/2000/svg" role="img" aria-label="Aperçu écran Txek">
  <defs>
    <linearGradient id="screenBg" x1="0" y1="0" x2="0" y2="1">
      <stop offset="0%" stop-color="#162173"/>
      <stop offset="100%" stop-color="#24116d"/>
    </linearGradient>
    <linearGradient id="cardBg" x1="0" y1="0" x2="1" y2="1">
      <stop offset="0%" stop-color="#1f2c73"/>
      <stop offset="100%" stop-color="#4425ae"/>
    </linearGradient>
  </defs>
  <rect width="360" height="720" rx="48" fill="#0b1020"/>
  <rect x="20" y="20" width="320" height="680" rx="38" fill="url(#screenBg)"/>
  <rect x="56" y="40" width="248" height="6" rx="3" fill="#8a98ff" opacity="0.55"/>
  <text x="180" y="92" text-anchor="middle" font-family="Inter, system-ui, sans-serif" font-size="24" font-weight="700" fill="#fff">Txek</text>
  <rect x="36" y="118" width="288" height="138" rx="28" fill="#151f47"/>
  <text x="54" y="154" font-family="Inter, system-ui, sans-serif" font-size="14" fill="#a9b2ff">Prochaine manche</text>
  <text x="54" y="188" font-family="Inter, system-ui, sans-serif" font-size="32" font-weight="800" fill="#fff">Manche 7</text>
  <rect x="36" y="262" width="288" height="312" rx="28" fill="#1d2b62"/>
  <text x="54" y="300" font-family="Inter, system-ui, sans-serif" font-size="14" fill="#a9b2ff">Scores</text>
  <g fill="#fff" font-family="Inter, system-ui, sans-serif" font-size="16" font-weight="700">
    <text x="54" y="342">Morgane</text>
    <text x="54" y="382">Lucas</text>
    <text x="54" y="422">Camille</text>
    <text x="54" y="462">Jean</text>
  </g>
  <g fill="#9aa6ff" font-family="Inter, system-ui, sans-serif" font-size="14">
    <text x="264" y="342" text-anchor="end">18 pts</text>
    <text x="264" y="382" text-anchor="end">21 pts</text>
    <text x="264" y="422" text-anchor="end">12 pts</text>
    <text x="264" y="462" text-anchor="end">26 pts</text>
  </g>
  <rect x="56" y="520" width="248" height="86" rx="24" fill="url(#cardBg)" opacity="0.92"/>
  <text x="180" y="560" text-anchor="middle" font-family="Inter, system-ui, sans-serif" font-size="18" font-weight="700" fill="#fff">Ajouter une partie</text>
  <text x="180" y="586" text-anchor="middle" font-family="Inter, system-ui, sans-serif" font-size="12" fill="#d9dbff" opacity="0.9">Suivi rapide de toutes vos manches Txek</text>
</svg>
