<svg viewBox="0 0 360 720" xmlns="http://www.w3.org/2000/svg" role="img" aria-label="Partie en cours DaPoint">
  <defs>
    <linearGradient id="liveBg" x1="0" y1="0" x2="0" y2="1">
      <stop offset="0%" stop-color="#111639"/>
      <stop offset="100%" stop-color="#1e2364"/>
    </linearGradient>
    <linearGradient id="playerRank" x1="0" y1="0" x2="1" y2="1">
      <stop offset="0%" stop-color="#ffda6b"/>
      <stop offset="100%" stop-color="#ffad24"/>
    </linearGradient>
  </defs>
  <rect width="360" height="720" rx="48" fill="#070a1a"/>
  <rect x="20" y="20" width="320" height="680" rx="38" fill="url(#liveBg)"/>
  <rect x="44" y="42" width="272" height="10" rx="5" fill="#9b8fff" opacity="0.65"/>
  <text x="180" y="92" text-anchor="middle" font-family="Inter, system-ui, sans-serif" font-size="26" font-weight="800" fill="#fff">Session Txek</text>
  <text x="180" y="126" text-anchor="middle" font-family="Inter, system-ui, sans-serif" font-size="14" fill="#b6bfff">Partie démarrée · Manche 4 / 8</text>
  <rect x="36" y="154" width="288" height="86" rx="24" fill="#151d5b"/>
  <text x="54" y="188" font-family="Inter, system-ui, sans-serif" font-size="14" fill="#c4c8ff">Tour en cours</text>
  <text x="54" y="224" font-family="Inter, system-ui, sans-serif" font-size="22" font-weight="800" fill="#fff">21 pts • Fred</text>
  <rect x="44" y="254" width="272" height="2" rx="1" fill="#4f5aff" opacity="0.45"/>

  <g font-family="Inter, system-ui, sans-serif" font-size="16" fill="#fff">
    <text x="54" y="306">Thomas</text>
    <text x="54" y="352">Juju</text>
    <text x="54" y="398">Aymeric</text>
    <text x="54" y="444">Julien</text>
    <text x="54" y="490">Laure</text>
  </g>
  <g font-family="Inter, system-ui, sans-serif" font-size="16" fill="#9fa8ff" text-anchor="end">
    <text x="296" y="306">18</text>
    <text x="296" y="352">23</text>
    <text x="296" y="398">15</text>
    <text x="296" y="444">12</text>
    <text x="296" y="490">19</text>
  </g>
  <rect x="36" y="520" width="288" height="112" rx="30" fill="#242e80"/>
  <rect x="52" y="544" width="132" height="32" rx="16" fill="#4e5fff"/>
  <text x="118" y="565" text-anchor="middle" font-family="Inter, system-ui, sans-serif" font-size="13" font-weight="700" fill="#fff">Ajouter une manche</text>
  <rect x="52" y="588" width="132" height="32" rx="16" fill="#212b59"/>
  <text x="118" y="609" text-anchor="middle" font-family="Inter, system-ui, sans-serif" font-size="13" fill="#b5bbff">Relancer partie</text>
  <rect x="176" y="552" width="124" height="68" rx="22" fill="url(#playerRank)" opacity="0.95"/>
  <text x="238" y="582" text-anchor="middle" font-family="Inter, system-ui, sans-serif" font-size="16" font-weight="800" fill="#08112c">Top</text>
  <text x="238" y="604" text-anchor="middle" font-family="Inter, system-ui, sans-serif" font-size="14" fill="#08112c">Juju • 23</text>
</svg>
