<svg viewBox="0 0 360 720" xmlns="http://www.w3.org/2000/svg" role="img" aria-label="Aperçu écran général DaPoint">
  <defs>
    <linearGradient id="screenBg3" x1="0" y1="0" x2="0" y2="1">
      <stop offset="0%" stop-color="#1f233f"/>
      <stop offset="100%" stop-color="#1a185b"/>
    </linearGradient>
    <linearGradient id="accent" x1="0" y1="0" x2="1" y2="1">
      <stop offset="0%" stop-color="#5c80ff"/>
      <stop offset="100%" stop-color="#9b4cff"/>
    </linearGradient>
  </defs>
  <rect width="360" height="720" rx="48" fill="#090c21"/>
  <rect x="20" y="20" width="320" height="680" rx="38" fill="url(#screenBg3)"/>
  <rect x="56" y="40" width="248" height="6" rx="3" fill="#a79eff" opacity="0.55"/>
  <text x="180" y="92" text-anchor="middle" font-family="Inter, system-ui, sans-serif" font-size="24" font-weight="700" fill="#fff">DaPoint</text>
  <rect x="36" y="118" width="288" height="96" rx="24" fill="#111743"/>
  <text x="54" y="154" font-family="Inter, system-ui, sans-serif" font-size="14" fill="#b5b9ff">Tableau de bord</text>
  <text x="54" y="190" font-family="Inter, system-ui, sans-serif" font-size="28" font-weight="800" fill="#fff">Sessions en cours</text>
  <rect x="36" y="242" width="288" height="140" rx="24" fill="#141b65"/>
  <rect x="52" y="258" width="80" height="18" rx="9" fill="#5c80ff"/>
  <rect x="52" y="286" width="196" height="18" rx="9" fill="#233274"/>
  <rect x="52" y="314" width="112" height="18" rx="9" fill="#5c80ff"/>
  <rect x="52" y="342" width="160" height="18" rx="9" fill="#233274"/>
  <rect x="52" y="380" width="288" height="156" rx="24" fill="#151c5d"/>
  <text x="54" y="416" font-family="Inter, system-ui, sans-serif" font-size="14" fill="#b5b9ff">Score global</text>
  <text x="54" y="454" font-family="Inter, system-ui, sans-serif" font-size="28" font-weight="800" fill="#fff">Totaux par joueur</text>
  <circle cx="276" cy="432" r="24" fill="#5c80ff" opacity="0.85"/>
  <text x="276" y="438" text-anchor="middle" font-family="Inter, system-ui, sans-serif" font-size="16" font-weight="700" fill="#fff">+7</text>
  <rect x="36" y="572" width="288" height="86" rx="30" fill="url(#accent)" opacity="0.95"/>
  <text x="180" y="614" text-anchor="middle" font-family="Inter, system-ui, sans-serif" font-size="18" font-weight="700" fill="#fff">Création de partie instantanée</text>
</svg>
