<svg viewBox="0 0 360 720" xmlns="http://www.w3.org/2000/svg" role="img" aria-label="Aperçu écran Ligretto">
  <defs>
    <linearGradient id="screenBg2" x1="0" y1="0" x2="0" y2="1">
      <stop offset="0%" stop-color="#1e225b"/>
      <stop offset="100%" stop-color="#3b1d90"/>
    </linearGradient>
    <linearGradient id="badgeBg" x1="0" y1="0" x2="1" y2="1">
      <stop offset="0%" stop-color="#ffd064"/>
      <stop offset="100%" stop-color="#ff9f2d"/>
    </linearGradient>
  </defs>
  <rect width="360" height="720" rx="48" fill="#081125"/>
  <rect x="20" y="20" width="320" height="680" rx="38" fill="url(#screenBg2)"/>
  <rect x="56" y="40" width="248" height="6" rx="3" fill="#ffcb7f" opacity="0.55"/>
  <text x="180" y="92" text-anchor="middle" font-family="Inter, system-ui, sans-serif" font-size="24" font-weight="700" fill="#fff">Ligretto</text>
  <rect x="36" y="118" width="288" height="162" rx="28" fill="#0f1942"/>
  <text x="54" y="156" font-family="Inter, system-ui, sans-serif" font-size="14" fill="#ffd78d">État de la partie</text>
  <text x="54" y="190" font-family="Inter, system-ui, sans-serif" font-size="32" font-weight="800" fill="#fff">3 joueurs</text>
  <text x="54" y="222" font-family="Inter, system-ui, sans-serif" font-size="14" fill="#d4d8ff">8 cartes restantes</text>
  <rect x="36" y="294" width="288" height="300" rx="28" fill="#1d2a60"/>
  <text x="54" y="334" font-family="Inter, system-ui, sans-serif" font-size="14" fill="#ffd78d">Classement</text>
  <circle cx="64" cy="384" r="18" fill="#ffb347"/>
  <text x="96" y="389" font-family="Inter, system-ui, sans-serif" font-size="14" fill="#081125">1</text>
  <text x="54" y="428" font-family="Inter, system-ui, sans-serif" font-size="16" fill="#fff">Laura</text>
  <text x="296" y="428" font-family="Inter, system-ui, sans-serif" font-size="16" fill="#fff" text-anchor="end">34</text>
  <text x="54" y="466" font-family="Inter, system-ui, sans-serif" font-size="16" fill="#fff">Nico</text>
  <text x="296" y="466" font-family="Inter, system-ui, sans-serif" font-size="16" fill="#fff" text-anchor="end">27</text>
  <text x="54" y="504" font-family="Inter, system-ui, sans-serif" font-size="16" fill="#fff">Sofia</text>
  <text x="296" y="504" font-family="Inter, system-ui, sans-serif" font-size="16" fill="#fff" text-anchor="end">19</text>
  <rect x="56" y="616" width="248" height="70" rx="22" fill="url(#badgeBg)" opacity="0.95"/>
  <text x="180" y="656" text-anchor="middle" font-family="Inter, system-ui, sans-serif" font-size="16" font-weight="700" fill="#081125">Mode Ligretto</text>
</svg>
